<svg width="105" height="105" viewBox="0 0 105 105" xmlns="http://www.w3.org/2000/svg">
<path d="m72.634 54.172c1.5147 0 2.9408-0.6671 3.9088-1.8307l6.8347-8.2006h12.591c4.6092 0 8.3592-3.75 8.3592-8.3594v-16.719c0-4.6094-3.75-8.3594-8.3592-8.3594h-8.3594c0-5.5322-4.499-10.031-10.031-10.031-5.5322 0-10.031 4.499-10.031 10.031h-8.3594c-4.6094 0-8.3594 3.75-8.3594 8.3594v9.2304c-3.1816-2.6315-7.2609-4.2148-11.703-4.2148h-1.6719c-5.5439 0-10.85 2.5496-14.321 6.853-5.2914 1.2774-9.0849 6.0556-9.0849 11.538 0 5.7713 2.4743 11.182 6.7778 14.995 0.56 5.1995 3.7817 9.5999 8.2691 11.838v3.6079l-11.666 2.7453c-9.8657 2.3205-16.756 11.021-16.756 21.156v7.5166h70.219v-7.5166c0-3.2752-0.7289-6.3949-2.0346-9.202h6.2661l6.8347 8.1989c0.968 1.1652 2.3941 1.8323 3.9088 1.8323 2.8054 0 5.0875-2.2821 5.0875-5.0875v-4.9437h5.0157c4.6092 0 8.3592-3.75 8.3592-8.3594v-13.375c0-4.6094-3.75-8.3594-8.3592-8.3594h-33.438c-4.6093 0-8.3593 3.75-8.3593 8.3594v9.7905c-0.0134-0.0033-0.0251-0.0084-0.0368-0.01l-11.666-2.7453v-3.6079c4.4873-2.2386 7.709-6.6406 8.269-11.838 3.8838-3.4424 6.2595-8.1855 6.6859-13.323h10.123v4.9438c0 2.8054 2.2821 5.0875 5.0875 5.0875zm4.9437-50.156c3.6882 0 6.6875 2.9994 6.6875 6.6875 0 3.6882-2.9993 6.6875-6.6875 6.6875-3.6881 0-6.6875-2.9993-6.6875-6.6875 0-3.6881 2.9994-6.6875 6.6875-6.6875zm-47.493 72.096 3.6062 4.81-3.8938 5.1911-3.3671-9.1418 3.6547-0.8593zm5.696 7.5953 4.6077 6.1425-4.1011 11.134h-1.0115l-4.1011-11.134 4.606-6.1425zm-31.766 13.104c0-8.5767 5.8298-15.938 14.179-17.902l4.9538-1.1653 8.5633 23.24h-14.321v-10.031h-3.3437v10.031h-10.031v-4.1726zm53.5-30.936c0-2.7653 2.2504-5.0156 5.0156-5.0156h33.438c2.7652 0 5.0152 2.2503 5.0152 5.0156v13.375c0 2.7653-2.25 5.0156-5.0152 5.0156h-8.3594v8.2875c0 0.9613-0.7825 1.7438-1.7438 1.7438-0.5199 0-1.0081-0.2291-1.3392-0.627l-7.836-9.4043h-9.7788c-2.3223-3.2902-5.5473-5.9218-9.396-7.5151v-10.876zm10.031 30.936v4.1726h-10.031v-10.031h-3.3437v10.031h-14.321l8.5617-23.24 4.9537 1.1653c8.351 1.9662 14.181 9.3274 14.181 17.902zm-22.413-19.838-3.3671 9.1418-3.8955-5.1928 3.6062-4.81 3.6564 0.861zm-6.0087-3.2953-3.3438 4.4589-3.3437-4.4589v-3.1748c1.0767 0.2457 2.1935 0.3878 3.3437 0.3878 1.1503 0 2.2671-0.1421 3.3438-0.3878v3.1748zm8.3594-17.834c0 6.4534-5.2514 11.703-11.703 11.703-6.4517 0-11.703-5.2497-11.703-11.703v-7.8528c0-1.2021 0.9764-2.1785 2.1785-2.1785 0.4313 0 0.8493 0.1271 1.2087 0.3661l4.4656 2.9776h10.538c2.7652 0 5.0156 2.2504 5.0156 5.0157v1.6719zm3.1949-3.1499c-0.7038-3.9038-4.1078-6.8814-8.2105-6.8814h-9.5247l-3.6246-2.4159c-0.9095-0.6069-1.9695-0.9278-3.0629-0.9278-3.0462 0-5.5222 2.476-5.5222 5.5222v4.4873c-2.1467-2.8623-3.3438-6.3498-3.3438-10.01 0-4.0493 2.8823-7.5653 6.8547-8.3594l0.7891-0.1589 0.3812-0.5099c2.8272-3.7684 7.3279-6.0187 12.038-6.0187h1.6719c8.2975 0 15.047 6.751 15.047 15.047 0 3.75-1.2456 7.3244-3.4926 10.225zm6.7511-11.897c-0.2976-3.2802-1.4613-6.3114-3.2585-8.8693v-12.865c0-2.7653 2.2503-5.0156 5.0156-5.0156h8.9445c0.642 1.8089 1.7839 3.3772 3.2669 4.5425-6.1659 2.4626-10.54 8.4847-10.54 15.52v3.3437h33.438v-3.3437c0-7.0353-4.3737-13.057-10.54-15.52 1.4829-1.1653 2.6248-2.7336 3.2668-4.5425h8.9446c2.7652 0 5.0152 2.2503 5.0152 5.0156v16.719c0 2.7653-2.25 5.0157-5.0152 5.0157h-14.159l-7.8377 9.4043c-0.3294 0.3979-0.8176 0.6269-1.3375 0.6269-0.9613 0-1.7438-0.7824-1.7438-1.7437v-8.2875h-13.46zm20.148-20.062c7.3747 0 13.375 6.0003 13.375 13.375h-26.75c0-7.3747 6.0004-13.375 13.375-13.375z"/>
<path d="m60.859 64.203h36.781v3.3438h-36.781v-3.3438z"/>
<path d="m60.859 70.891h36.781v3.3438h-36.781v-3.3438z"/>
<path d="m67.547 77.578h23.406v3.3438h-23.406v-3.3438z"/>
</svg>
