<svg width="98" height="107" viewBox="0 0 98 107" xmlns="http://www.w3.org/2000/svg">
<path d="m93.1 71.206h-4.9c5.9099-15.369 3.696-32.999-5.7889-46.099-9.4848-13.1-24.761-19.626-39.944-17.064v-2.3184c0-2.9323-2.1938-5.3093-4.9-5.3093h-32.667c-2.7062 0-4.9 2.3771-4.9 5.3093v24.777c0 2.9323 2.1938 5.3093 4.9 5.3093h4.9c-5.9099 15.369-3.696 32.999 5.7889 46.099 9.4848 13.1 24.761 19.625 39.944 17.064v2.3181c0 2.933 2.1938 5.31 4.9 5.31h32.667c2.7062 0 4.9-2.377 4.9-5.31v-24.776c0-2.9323-2.1938-5.3094-4.9-5.3094zm-8.2973 0h-14.096l-7.6277-5.15c0.7677-0.1593-1.0126-0.1593 23.389-0.1593-1.225 4.3714-1.666 4.4422-1.666 5.3093zm3.0706-23.007h-17.967c-1.0787-0.0047-2.1114-0.4734-2.8711-1.3032-0.7596-0.8297-1.1839-1.9525-1.1796-3.1212 0-2.1183-0.7788-4.1494-2.1643-5.6439-1.3855-1.4946-3.2634-2.3295-5.2184-2.3201h-1.8946c-2.2552 0-4.0834-1.9809-4.0834-4.4244 0-2.4436 1.8282-4.4244 4.0834-4.4244h9.4733c3.6305-0.0148 6.6995-2.9179 7.203-6.8137 8.1119 6.8809 13.37 16.971 14.618 28.051zm-84.607-17.698v-24.777c0-0.97742 0.73126-1.7698 1.6333-1.7698h32.667c0.902 0 1.6333 0.79235 1.6333 1.7698v33.98l-10.568-7.1676c-0.5716-0.3893 1.1434-0.2654-23.732-0.2654-0.43319 0-0.84863-0.1865-1.1549-0.5184s-0.47839-0.782-0.47839-1.2514zm9.9306 5.3093h14.096l7.595 5.1501c-0.7677 0.23-0.4083 0.1592-8.624 0.1592-4.0593 0-7.35 3.5656-7.35 7.964s3.2907 7.964 7.35 7.964h15.157c2.2552 0 4.0834 1.9809 4.0834 4.4244s-1.8282 4.4244-4.0834 4.4244h-29.89c-4.7366-16.795 1.666-28.936 1.666-30.086zm-0.5226 33.626h28.747c4.0593 0 7.35-3.5656 7.35-7.964s-3.2907-7.964-7.35-7.964h-15.157c-2.2552 0-4.0833-1.9809-4.0833-4.4244s1.8281-4.4244 4.0833-4.4244h7.5787c1.5334 0.0388 3.0288-0.5201 4.214-1.5751 2.009 1.3804 2.1723 1.5751 2.7766 1.5751 0.9021 0 1.6334-0.7924 1.6334-1.7698v-31.254c9.643-1.7959 19.557 0.4093 27.767 6.1765-0.065 0.3914-0.0978 0.7882-0.098 1.1858 0.0044 1.1749-0.4244 2.303-1.1911 3.1337-0.7668 0.8308-1.8079 1.2954-2.8922 1.2907h-9.4733c-4.0593 0-7.35 3.5656-7.35 7.964s3.2907 7.964 7.35 7.964h1.8946c2.2424 0.0194 4.0508 1.9946 4.0507 4.4244 0 4.3846 3.2708 7.9445 7.3173 7.964h18.359c0.1716 3.5632-0.1031 7.1353-0.8167 10.619h-23.291c-1.5135-0.0423-2.991 0.5039-4.165 1.5397l-1.8947-1.2742c-0.504-0.3414-1.1393-0.3591-1.6589-0.0463-0.5195 0.3127-0.8413 0.9066-0.8401 1.5506v9.3444c-0.7428 0.8126-1.7537 1.2711-2.8093 1.2742h-10.257c-4.0593 0.2248-7.1818 3.9726-6.9744 8.371 0.2075 4.3984 3.6664 7.7817 7.7257 7.5569h1.8947c1.0786 0.0047 2.1113 0.4735 2.871 1.3032 0.7596 0.8298 1.184 1.9525 1.1796 3.1213v0.8848c-16.028 0.0661-30.478-10.447-36.489-26.546zm39.788 26.37v-0.7079c0-4.3846-3.2708-7.9445-7.3174-7.964h-1.8946c-2.2552 0.1319-4.1821-1.742-4.3039-4.1855-0.1217-2.4436 1.6077-4.5314 3.8629-4.6634h9.9143c0.9655 0.0016 1.9212-0.2092 2.8093-0.6194v17.698c-0.9636 0.1947-1.9763 0.354-3.0706 0.4425zm42.271 5.486c0 0.978-0.7312 1.77-1.6333 1.77h-32.667c-0.902 0-1.6333-0.792-1.6333-1.77v-33.979c11.629 7.8932 10.78 7.4331 11.433 7.4331h22.867c0.9021 0 1.6333 0.7923 1.6333 1.7698v24.776z" fill="#251007"/>
<path d="m9.7996 11.034h1.6333c0.9021 0 1.6333-0.7922 1.6333-1.7694 0-0.97725-0.7312-1.7695-1.6333-1.7695h-1.6333c-0.90206 0-1.6333 0.79221-1.6333 1.7695 0 0.97721 0.73127 1.7694 1.6333 1.7694z"/>
<path d="m17.967 11.034h14.7c0.9021 0 1.6333-0.7922 1.6333-1.7694 0-0.97725-0.7312-1.7695-1.6333-1.7695h-14.7c-0.9021 0-1.6334 0.79221-1.6334 1.7695 0 0.97721 0.7313 1.7694 1.6334 1.7694z" fill="#251007"/>
<path d="m9.7996 19.883h16.333c0.9021 0 1.6334-0.7925 1.6334-1.77s-0.7313-1.77-1.6334-1.77h-16.333c-0.90206 0-1.6333 0.7925-1.6333 1.77s0.73127 1.77 1.6333 1.77z" fill="#251007"/>
<path d="m34.3 26.962c0-0.9774-0.7313-1.7697-1.6333-1.7697h-22.867c-0.90206 0-1.6333 0.7923-1.6333 1.7697s0.73127 1.7697 1.6333 1.7697h22.867c0.902 0 1.6333-0.7923 1.6333-1.7697z" fill="#251007"/>
<path d="m89.833 87.134h-26.133c-0.9021 0-1.6333 0.7923-1.6333 1.7697s0.7312 1.7697 1.6333 1.7697h26.133c0.902 0 1.6333-0.7923 1.6333-1.7697s-0.7313-1.7697-1.6333-1.7697z" fill="#251007"/>
<path d="m66.966 94.213h-3.2667c-0.9021 0-1.6333 0.7922-1.6333 1.7694 0 0.9773 0.7312 1.7695 1.6333 1.7695h3.2667c0.9021 0 1.6333-0.7922 1.6333-1.7695 0-0.9772-0.7312-1.7694-1.6333-1.7694z" fill="#251007"/>
<path d="m89.833 94.213h-16.333c-0.902 0-1.6333 0.7922-1.6333 1.7694 0 0.9773 0.7313 1.7695 1.6333 1.7695h16.333c0.902 0 1.6333-0.7922 1.6333-1.7695 0-0.9772-0.7313-1.7694-1.6333-1.7694z" fill="#251007"/>
<path d="m63.7 83.594h16.333c0.9021 0 1.6334-0.7924 1.6334-1.7697 0-0.9774-0.7313-1.7698-1.6334-1.7698h-16.333c-0.9021 0-1.6333 0.7924-1.6333 1.7698 0 0.9773 0.7312 1.7697 1.6333 1.7697z" fill="#251007"/>
</svg>
