<svg width="139" height="84" viewBox="0 0 139 84" xmlns="http://www.w3.org/2000/svg">
<path d="m17.467 60.993-3.8321-1.4462c-0.4582 1.4265-0.8751 2.89-1.2389 4.3494l3.9173 1.1463c0.3387-1.3586 0.7268-2.7209 1.1537-4.0495z" fill="#251007"/>
<path d="m10.706 73.006 3.9128 0.583c0.1535-1.5286 0.3535-3.0681 0.5947-4.5746l-3.8692-0.92c-0.2588 1.618-0.4736 3.2702-0.6383 4.9116z" fill="#251007"/>
<path d="m129.59 73.051c-3.66-32.41-29.193-56.85-59.391-56.85h-3e-4c-23.938 0-45.524 15.39-54.988 39.205l3.756 1.7502c8.8179-22.189 28.928-36.527 51.232-36.527 28.134 0 51.922 22.768 55.332 52.96l4.059-0.5378z" fill="#251007"/>
<path d="m119.45 72.935c-1.742-12.757-7.659-24.477-16.66-33.002-9.0925-8.6111-20.729-13.354-32.767-13.354-18.474 0-35.374 11.049-44.105 28.836l3.6029 2.0949c8.0194-16.336 23.539-26.484 40.502-26.484 22.56 0 42.072 18.298 45.386 42.563l4.041-0.6538z" fill="#251007"/>
<path d="m20.284 72.899 4.2863 0.6901c0.2025-1.4765 0.4666-2.96 0.7847-4.409l-4.2162-1.0856c-0.3464 1.5795-0.6341 3.1959-0.8548 4.8045z" fill="#251007"/>
<path d="m27.609 61.227-3.6169-1.6808c-0.5371 1.3568-1.0264 2.7554-1.4541 4.1571l3.7366 1.3386c0.3925-1.2863 0.8414-2.5698 1.3344-3.8149z" fill="#251007"/>
<path d="m69.91 41.429c17.304 0 32.188 13.525 35.392 32.159l4.006-0.8283c-3.566-20.745-20.135-35.802-39.398-35.802-12.964 0-25.197 6.949-32.723 18.588l3.3255 2.5864c6.7633-10.46 17.753-16.704 29.398-16.704z" fill="#251007"/>
<path d="m30.426 72.747 4.1258 0.8421c0.2446-1.4039 0.5626-2.809 0.9452-4.1759l-4.0178-1.3187c-0.4265 1.5233-0.7809 3.0886-1.0532 4.6525z" fill="#251007"/>
<path d="m38.314 61.775-3.6785-2.2285c-0.7205 1.3955-1.3788 2.8482-1.9559 4.3174l3.878 1.7881c0.5182-1.3191 1.1093-2.6236 1.7564-3.877z" fill="#251007"/>
<path d="m132.44 49.604-3.736 1.8431c3.634 8.6199 5.607 17.791 5.872 27.294h-35.352c-0.6171-9.8123-5.2968-18.918-12.782-24.685l-2.3822 3.6175c6.968 5.3684 11.128 14.074 11.128 23.288v2.2206h43.526v-2.2209c0-10.935-2.111-21.485-6.273-31.357z" fill="#251007"/>
<path d="m69.978 9.6377c24.44 0 46.756 14.446 58.24 37.699l3.629-2.0779c-12.198-24.702-35.905-40.048-61.868-40.048-14.448 0-28.32 4.699-40.115 13.589l2.3578 3.6259c11.1-8.3665 24.156-12.789 37.757-12.789z" fill="#251007"/>
<path d="m43.576 81.13c0-15.796 11.864-28.648 26.447-28.648 4.2427 0 8.2972 1.0601 12.05 3.1506l1.8798-3.9602c-4.2795-2.3836-9.0964-3.6435-13.931-3.6435-16.158 0-29.428 13.657-30.49 30.874h-35.391c0.59389-21.064 9.6045-40.542 24.929-53.721l-2.5562-3.4873c-16.851 14.492-26.515 36.155-26.515 59.435v2.2266h43.576v-2.2266z" fill="#251007"/>
<path d="m32.745 1.9851 3.6807-1.9431 3.1082 6.9129-3.6806 1.9431-3.1083-6.9129z" fill="#251007"/>
<path d="m5.0752 27.543 2.522-3.4954 5.592 4.7363-2.522 3.4955-5.592-4.7364z" fill="#251007"/>
<path d="m100.43 6.9128 3.108-6.9129 3.681 1.9431-3.109 6.9129-3.68-1.9431z" fill="#251007"/>
<path d="m126.82 28.725 5.592-4.7366 2.522 3.4957-5.592 4.7366-2.522-3.4957z" fill="#251007"/>
</svg>
