<svg width="139" height="84" viewBox="0 0 139 84" fill="none" xmlns="http://www.w3.org/2000/svg">
<path d="M17.467 60.9926L13.6349 59.5464C13.1767 60.9729 12.7598 62.4364 12.396 63.8958L16.3133 65.0421C16.652 63.6835 17.0401 62.3212 17.467 60.9926Z" fill="#251007"/>
<path d="M10.7056 73.0061L14.6184 73.5891C14.7719 72.0605 14.9719 70.521 15.2131 69.0145L11.3439 68.0945C11.0851 69.7125 10.8703 71.3647 10.7056 73.0061Z" fill="#251007"/>
<path d="M129.592 73.0507C125.932 40.6406 100.399 16.2004 70.201 16.2004C70.1996 16.2004 70.2021 16.2004 70.2007 16.2004C46.2624 16.2004 24.6764 31.5904 15.2129 55.4051L18.9689 57.1553C27.7868 34.9659 47.8967 20.6283 70.201 20.6283C98.3355 20.6283 122.123 43.3962 125.533 73.5885L129.592 73.0507Z" fill="#251007"/>
<path d="M119.451 72.9347C117.709 60.1781 111.792 48.4581 102.791 39.9328C93.6985 31.3217 82.0618 26.5793 70.0243 26.5793C51.5504 26.5793 34.6505 37.6287 25.9189 55.4148L29.5218 57.5097C37.5412 41.1736 53.0609 31.0253 70.0243 31.0253C92.5847 31.0253 112.096 49.3235 115.41 73.5885L119.451 72.9347Z" fill="#251007"/>
<path d="M20.2842 72.899L24.5705 73.5891C24.773 72.1126 25.0371 70.6291 25.3552 69.1801L21.139 68.0945C20.7926 69.674 20.5049 71.2904 20.2842 72.899Z" fill="#251007"/>
<path d="M27.6086 61.2272L23.9917 59.5464C23.4546 60.9032 22.9653 62.3018 22.5376 63.7035L26.2742 65.0421C26.6667 63.7558 27.1156 62.4723 27.6086 61.2272Z" fill="#251007"/>
<path d="M69.9105 41.4291C87.2143 41.4291 102.099 54.954 105.302 73.5885L109.308 72.7602C105.742 52.015 89.173 36.9583 69.9105 36.9583C56.9465 36.9583 44.7137 43.9073 37.1875 55.5466L40.513 58.133C47.2763 47.6735 58.2662 41.4291 69.9105 41.4291Z" fill="#251007"/>
<path d="M30.4263 72.747L34.5521 73.5891C34.7967 72.1852 35.1147 70.7801 35.4973 69.4132L31.4795 68.0945C31.053 69.6178 30.6986 71.1831 30.4263 72.747Z" fill="#251007"/>
<path d="M38.3141 61.7749L34.6356 59.5464C33.9151 60.9419 33.2568 62.3946 32.6797 63.8638L36.5577 65.6519C37.0759 64.3328 37.667 63.0283 38.3141 61.7749Z" fill="#251007"/>
<path d="M132.44 49.6038L128.704 51.4469C132.338 60.0668 134.311 69.238 134.576 78.7406H99.2235C98.6064 68.9283 93.9267 59.8231 86.4413 54.056L84.0591 57.6735C91.0271 63.0419 95.187 71.7476 95.187 80.9612V83.1818H138.713V80.9609C138.713 70.0259 136.602 59.4758 132.44 49.6038Z" fill="#251007"/>
<path d="M69.9775 9.63772C94.417 9.63772 116.733 24.0835 128.217 47.3371L131.846 45.2592C119.648 20.5571 95.9408 5.21167 69.9775 5.21167C55.529 5.21167 41.6575 9.91067 29.8628 18.8005L32.2206 22.4264C43.3208 14.0599 56.3767 9.63772 69.9775 9.63772Z" fill="#251007"/>
<path d="M43.576 81.1305C43.576 65.3341 55.4401 52.4827 70.023 52.4827C74.2657 52.4827 78.3202 53.5428 82.0735 55.6333L83.9533 51.6731C79.6738 49.2895 74.8569 48.0296 70.0227 48.0296C53.8643 48.0296 40.5944 61.6868 39.5332 78.904H4.14246C4.73635 57.8403 13.747 38.3624 29.0712 25.1829L26.515 21.6956C9.66427 36.1875 0 57.8509 0 81.1305V83.3571H43.576V81.1305Z" fill="#251007"/>
<path d="M32.7451 1.98511L36.4258 0.0420166L39.534 6.95492L35.8534 8.89801L32.7451 1.98511Z" fill="#251007"/>
<path d="M5.0752 27.5427L7.59718 24.0473L13.1892 28.7836L10.6672 32.2791L5.0752 27.5427Z" fill="#251007"/>
<path d="M100.431 6.91284L103.539 -6.57695e-05L107.22 1.94302L104.111 8.85593L100.431 6.91284Z" fill="#251007"/>
<path d="M126.819 28.7253L132.411 23.9887L134.933 27.4844L129.341 32.221L126.819 28.7253Z" fill="#251007"/>
</svg>
