<svg width="101" height="101" viewBox="0 0 101 101" xmlns="http://www.w3.org/2000/svg">
<path d="m100.59 43.075-16.904-21.96c-0.6257-0.8122-1.767-1.0125-2.6323-0.4624l-10.914 6.9413h-14.235c-0.1841 0-0.3675 0.0393-0.5448 0.091l-11.037 3.177-11.452-3.1323-11.128-7.077c-0.8507-0.5409-1.9711-0.3575-2.6038 0.4269l-18.698 23.16c-0.67194 0.8322-0.56097 2.0474 0.24966 2.7447l9.8001 8.4339 8.7921 11.848c-2.5713 2.7394-2.5213 7.0599 0.1542 9.7361 1.1859 1.1852 2.6939 1.8548 4.245 2.0104-0.0539 0.3514-0.0817 0.7082-0.0817 1.0704 0 1.8694 0.7282 3.627 2.0498 4.9485 1.3223 1.3223 3.0799 2.0505 4.9493 2.0505 0.0254 0 0.0501-0.0015 0.0748-0.0023-8e-4 0.0478-0.0031 0.0948-0.0031 0.1426 0 1.8694 0.7282 3.627 2.0497 4.9493 1.3223 1.3216 3.08 2.0498 4.9494 2.0498 0.3691 0 0.7343-0.0301 1.0926-0.0856 0.1518 1.5566 0.823 3.0715 2.0128 4.2613 1.3639 1.3647 3.1562 2.0462 4.9485 2.0462 1.7924 0 3.5847-0.6815 4.9494-2.0462l1.0703-1.0703 0.4493 0.3621c1.3531 1.3108 3.11 1.9657 4.8669 1.9657 1.7923 0 3.5847-0.6819 4.9486-2.0466 1.3924-1.3924 2.0744-3.2302 2.0458-5.0588 1.8278 0.0278 3.6664-0.6534 5.0588-2.0451 1.3909-1.3916 2.0729-3.2279 2.0459-5.0557 1.9041 0.0301 3.7103-0.7012 5.058-2.0489 1.3924-1.3924 2.0744-3.2302 2.0459-5.0588 1.8293 0.0277 3.6663-0.6534 5.0587-2.0459 2.3765-2.3764 2.6824-6.0497 0.9201-8.7613l6.4196-13.445 9.6514-8.3052c0.798-0.6866 0.919-1.8764 0.277-2.7093zm-79.481-18.131 8.0016 5.0881-17.406 21.206-6.9752-6.0035 16.38-20.291zm1.1289 44.961 2.4149-2.415c0.0732-0.0732 0.1503-0.1425 0.2289-0.2072 0.4724-0.3853 1.0441-0.615 1.6498-0.6697 0.0169-0.0015 0.0347-0.0015 0.0516-0.0023 0.0863-0.0069 0.1726-0.0115 0.2597-0.0108 0.8276 0.0116 1.5966 0.3499 2.1668 0.9517 1.1189 1.1828 1.0588 3.1154-0.134 4.3082l-2.3418 2.3418c-1.1844 1.1844-3.1116 1.1844-4.2959 0-1.1844-1.1851-1.1844-3.1123 0-4.2967zm6.2131 12.326c-0.5741-0.5733-0.89-1.3361-0.89-2.1475 0-0.8115 0.3159-1.5743 0.89-2.1484l4.6827-4.6827c0.897-0.897 2.3071-1.1428 3.4537-0.5965 1.1821 0.5633 1.8471 1.8463 1.6737 3.137-0.0925 0.6889-0.413 1.3377-0.9047 1.8301l-4.6087 4.608c-0.5741 0.5741-1.337 0.89-2.1484 0.89s-1.5743-0.3159-2.1483-0.89zm7.0707 7.1394c-0.5741-0.5734-0.89-1.3362-0.89-2.1476s0.3159-1.5743 0.89-2.1484l4.682-4.6827c0.9594-0.9586 2.4982-1.1651 3.6725-0.4816 1.0727 0.6241 1.6344 1.8493 1.4502 3.0699-0.1009 0.6712-0.4199 1.3023-0.9 1.7824l-4.608 4.608c-0.5741 0.574-1.3369 0.89-2.1483 0.89s-1.5743-0.316-2.1484-0.89zm8.054 6.2262c-1.1844-1.1844-1.1844-3.1116 0-4.296l2.415-2.4149c0.0732-0.0732 0.1495-0.1418 0.2281-0.2065 0.0023-0.0016 0.0038-0.0031 0.0053-0.0047 0.393-0.319 0.8546-0.5324 1.347-0.6257 0.0116-0.0015 0.0231-0.0031 0.0347-0.0046 0.0847-0.0154 0.171-0.0277 0.2573-0.0354 0.0347-0.0031 0.0694-0.0031 0.1048-0.0054 0.0709-0.0039 0.1411-0.0085 0.2127-0.0077 0.8268 0.0115 1.5966 0.349 2.1669 0.9516 0.0701 0.074 0.1356 0.151 0.1957 0.2304 0.9108 1.1905 0.7883 2.959-0.3421 4.0902l-2.3295 2.3294c-1.1843 1.1844-3.1115 1.1836-4.2959-7e-4zm36.945-22.102c-1.1843 1.1852-3.1115 1.1844-4.2959 0-0.0431-0.0431-0.0886-0.0832-0.1348-0.121l-12.734-12.868c-0.7698-0.7775-2.0235-0.7836-2.801-0.0138-0.7775 0.769-0.7837 2.0227-0.0146 2.8002l12.872 13.006c0.0016 0.0015 0.0031 3e-3 0.0047 0.0046 1.1843 1.1843 1.1843 3.1123 0 4.2967-0.5741 0.574-1.337 0.89-2.1484 0.89-0.8122 0-1.575-0.316-2.1483-0.89l-8.6111-8.7005c-0.7691-0.7775-2.0228-0.7837-2.8003-0.0147-0.7775 0.7698-0.7837 2.0235-0.0146 2.8011l8.4793 8.5671c0.0432 0.054 0.0894 0.1056 0.1387 0.1549 1.1844 1.1844 1.1844 3.1123 0 4.2967-1.1851 1.1844-3.1131 1.1836-4.2975-8e-4l-4.6997-4.749c-0.7698-0.7775-2.0235-0.7844-2.801-0.0146-0.7775 0.769-0.7836 2.0227-0.0146 2.8002l4.5687 4.6157c0.0431 0.054 0.0894 0.1064 0.1395 0.1557 1.1843 1.1844 1.1843 3.1123 0 4.2967-1.1844 1.1851-3.1116 1.1844-4.296 0-0.1364-0.1364-0.2966-0.2412-0.4492-0.3583-0.1295-0.0987-0.1634-0.1672-0.0986-0.3244 0.0655-0.1595 0.1633-0.3036 0.2288-0.4639 0.0725-0.1788 0.131-0.363 0.188-0.5479 0.3036-0.9786 0.393-2.0312 0.2566-3.0468-0.262-1.9488-1.3338-3.7072-2.9582-4.8199-0.8776-0.6003-1.8933-0.9941-2.9459-1.142 0.5102-2.2501-0.1024-4.6897-1.696-6.3734-1.3115-1.3855-3.083-2.163-4.9886-2.1892-0.0694-7e-4 -0.1387-7e-4 -0.2089 0 0.0424-1.8185-0.6187-3.6255-1.8724-4.9501-1.3123-1.3855-3.0839-2.163-4.9887-2.1892-0.5664-0.0077-1.1381 0.0524-1.6899 0.1795-0.2358-1.6405-1.0626-3.1585-2.3148-4.2443-1.2444-1.0772-2.8095-1.6752-4.4762-1.6983-1.7546-0.0254-3.4783 0.6219-4.7814 1.7985l-7.6556-10.316 18.315-22.313 5.8371 1.5966-7.6233 13.452c-0.9216 1.6266-1.1543 3.5145-0.6557 5.3161 0.4985 1.8024 1.6683 3.3019 3.2949 4.2235 0.1017 0.0578 0.2042 0.1125 0.3083 0.1649 0.0077 0.0039 0.0154 0.0077 0.0238 0.0116 0.2736 0.1364 0.5549 0.2535 0.84 0.3521 1.3277 0.46 2.7617 0.5101 4.1449 0.1279 1.8015-0.4985 3.3011-1.669 4.2227-3.2949l4.954-8.7421 8.8453 0.6272 23.554 23.553c1.1836 1.1852 1.1836 3.1124-8e-4 4.2967zm0.8207-9.0781-22.096-22.095c-0.0416-0.0423-0.0855-0.0824-0.131-0.1202-0.3182-0.265-0.7128-0.4253-1.1289-0.4546l-10.83-0.7683c-0.749-0.0516-1.4934 0.3468-1.8632 0.9995l-5.5697 9.8294c-0.3999 0.7058-1.0511 1.2136-1.8332 1.4301-0.7814 0.2166-1.6012 0.1148-2.3079-0.2851-0.7058-0.3999-1.2136-1.051-1.4301-1.8332-0.2166-0.7821-0.1156-1.602 0.2851-2.3078l7.4352-13.122 3.0129-0.8669c0.0201-0.0062 0.0393-0.0139 0.0594-0.0201l11.245-3.2471h13.587l16.962 21.562-5.3955 11.3zm7.99-14.408-15.686-19.951 8.0055-5.0911 14.657 19.038-6.9767 6.0035z"/>
<path d="m61.189 23.875c0.507 0 1.0141-0.1934 1.4009-0.5802l13.528-13.528c0.7737-0.77365 0.7737-2.0274 0-2.801-0.7736-0.77365-2.0273-0.77365-2.801 0l-13.528 13.528c-0.7737 0.7736-0.7737 2.0273 0 2.801 0.3868 0.3868 0.8939 0.5802 1.4001 0.5802z"/>
<path d="m38.411 23.295c0.3868 0.3868 0.8939 0.5802 1.4009 0.5802 0.5063 0 1.0133-0.1934 1.4001-0.5802 0.7737-0.7737 0.7737-2.0274 0-2.801l-13.528-13.528c-0.7736-0.77365-2.0274-0.77365-2.801 0-0.7737 0.77365-0.7737 2.0274 0 2.801l13.528 13.528z"/>
<path d="m50.5 23.875c1.0934 0 1.9803-0.8869 1.9803-1.9803v-11.196c0-1.0935-0.8869-1.9804-1.9803-1.9804s-1.9804 0.88693-1.9804 1.9804v11.196c0 1.0934 0.887 1.9803 1.9804 1.9803z"/>
<path d="m48.672 3.5215c0.3144 0.7621 1.0981 1.2622 1.9249 1.219 0.8168-0.04238 1.5342-0.59411 1.787-1.3716 0.2535-0.78367-0.0224-1.6768-0.6789-2.1761-0.6696-0.51011-1.6036-0.53862-2.304-0.07551-0.7814 0.51628-1.0842 1.5442-0.729 2.4042z"/>
</svg>
