<svg width="100" height="100" viewBox="0 0 100 100" xmlns="http://www.w3.org/2000/svg">
<path d="m67.383 86.816c0 2.4232 1.9713 4.3945 4.3945 4.3945 2.4233 0 4.3946-1.9713 4.3946-4.3945s-1.9713-4.3945-4.3946-4.3945c-2.4232 0-4.3945 1.9713-4.3945 4.3945zm5.8594 0c0 0.8078-0.657 1.4648-1.4649 1.4648-0.8078 0-1.4648-0.657-1.4648-1.4648s0.657-1.4648 1.4648-1.4648c0.8079 0 1.4649 0.657 1.4649 1.4648z" fill="#251007"/>
<path d="m27.832 47.266c-12.116 0-21.973 9.8569-21.973 21.973s9.8568 21.973 21.973 21.973c12.116 0 21.973-9.8568 21.973-21.973s-9.8568-21.973-21.973-21.973zm0 41.016c-10.5 0-19.043-8.5425-19.043-19.043s8.5425-19.043 19.043-19.043 19.043 8.5426 19.043 19.043-8.5426 19.043-19.043 19.043z" fill="#251007"/>
<path d="m27.832 63.379c-3.2308 0-5.8593 2.6285-5.8593 5.8594 0 3.2308 2.6285 5.8594 5.8593 5.8594 3.2309 0 5.8594-2.6286 5.8594-5.8594 0-3.2309-2.6285-5.8594-5.8594-5.8594zm0 8.7891c-1.6154 0-2.9297-1.3143-2.9297-2.9297s1.3143-2.9297 2.9297-2.9297c1.6155 0 2.9297 1.3143 2.9297 2.9297s-1.3142 2.9297-2.9297 2.9297z" fill="#251007"/>
<path d="m98.535 79.492h-11.69l-3.5099-17.55c-0.6823-3.4117-3.7028-5.8879-7.1819-5.8879h-2.9113v-21.973c0-4.0386-3.2856-7.3242-7.3242-7.3242h-4.542c-0.6805-3.339-3.6397-5.8594-7.1768-5.8594h-21.973v-10.644c0-4.0387-3.2856-7.3242-7.3243-7.3242h-20.508c-1.2529 0-2.4508 0.54043-3.2865 1.4824-0.83399 0.94004-1.2262 2.1953-1.0762 3.4441 0.26465 2.202 2.1736 3.8626 4.44 3.8626h18.966v30.036c-13.266 2.1135-23.438 13.632-23.438 27.484 0 15.347 12.485 27.832 27.832 27.832 15.347 0 27.832-12.485 27.832-27.832 0-3.6194-0.6952-7.0791-1.9577-10.254h16.606v8.789h-10.254c-0.809 0-1.4648 0.6559-1.4648 1.4649s0.6558 1.4648 1.4648 1.4648h10.254v5.9657c-4.9623 0.713-8.7891 4.991-8.7891 10.148 0 5.6541 4.5998 10.254 10.254 10.254s10.254-4.5998 10.254-10.254c0-5.1566-3.8267-9.4344-8.789-10.148v-17.684h2.9113c2.0875 0 3.8998 1.4857 4.3092 3.5326l3.7402 18.701c0.0033 0.0187 0.0071 0.0373 0.0112 0.0558l1.166 5.8299c0.1369 0.6848 0.7381 1.1775 1.4363 1.1775h11.719c0.8089 0 1.4648-0.6558 1.4648-1.4648v-5.8594c0-0.809-0.6559-1.4648-1.4648-1.4648zm-19.434 7.3242c0 4.0387-3.2856 7.3242-7.3243 7.3242-4.0386 0-7.3242-3.2855-7.3242-7.3242s3.2856-7.3242 7.3242-7.3242c4.0387 0 7.3243 3.2855 7.3243 7.3242zm-24.902-62.988c1.9098 0 3.5379 1.2248 4.1426 2.9297h-26.115v-2.9297h21.973zm-49.727-15.039c-0.77227 0-1.4449-0.56328-1.5313-1.2822-0.05078-0.42364 0.07676-0.83223 0.35899-1.1506 0.28027-0.31582 0.6793-0.49687 1.0949-0.49687h19.043v2.9297h-18.966zm21.895-2.6777c1.7049 0.60469 2.9297 2.2328 2.9297 4.1426v31.191c-0.4852-0.0252-0.9735-0.0385-1.4649-0.0385s-0.9797 0.0133-1.4648 0.0385v-35.333zm1.4648 88.029c-13.731 0-24.902-11.171-24.902-24.902 0-13.731 11.171-24.902 24.902-24.902 13.731 0 24.902 11.171 24.902 24.902 0 13.731-11.171 24.902-24.902 24.902zm24.506-38.086c-4.0418-7.4828-11.411-12.914-20.111-14.3v-3.2777h27.832c0.809 0 1.4648-0.6559 1.4648-1.4649s-0.6558-1.4648-1.4648-1.4648h-27.832v-5.8594h33.691c2.4232 0 4.3945 1.9713 4.3945 4.3945v1.4649h-4.3945c-0.809 0-1.4649 0.6558-1.4649 1.4648s0.6559 1.4649 1.4649 1.4649h4.3945v17.578h-17.975zm44.732 29.297h-9.0531l-0.5859-2.9297h9.639v2.9297z" fill="#251007"/>
</svg>
